<svg width="18" height="20" viewBox="0 0 18 20" fill="none" xmlns="http://www.w3.org/2000/svg">
<path fill-rule="evenodd" clip-rule="evenodd" d="M13.4109 0.768617L13.4119 1.51824C16.1665 1.73413 17.9862 3.61119 17.9891 6.48975L18 14.9155C18.0039 18.054 16.0322 19.985 12.8718 19.99L5.15188 20C2.01119 20.004 0.0148166 18.027 0.0108673 14.8795L6.64975e-06 6.55272C-0.00394266 3.65517 1.75153 1.78311 4.50617 1.53024L4.50518 0.780611C4.5042 0.340832 4.83001 0.00999726 5.26444 0.00999726C5.69886 0.00899776 6.02468 0.338833 6.02567 0.778612L6.02666 1.47826L11.8914 1.47027L11.8904 0.770616C11.8894 0.330837 12.2152 0.00100176 12.6497 2.26549e-06C13.0742 -0.000997234 13.4099 0.328838 13.4109 0.768617ZM1.52148 6.86157L16.4696 6.84158V6.49175C16.4272 4.34283 15.349 3.21539 13.4138 3.04748L13.4148 3.81709C13.4148 4.24688 13.0801 4.5877 12.6556 4.5877C12.2212 4.5887 11.8943 4.24887 11.8943 3.81909L11.8934 3.00949L6.02863 3.01749L6.02962 3.82609C6.02962 4.25687 5.70479 4.5967 5.27036 4.5967C4.83594 4.5977 4.50913 4.25887 4.50913 3.82809L4.50815 3.05847C2.58286 3.25137 1.51753 4.38281 1.52049 6.55072L1.52148 6.86157ZM12.2402 11.4043V11.4152C12.2501 11.875 12.6253 12.2238 13.0804 12.2138C13.5247 12.2029 13.8792 11.822 13.8693 11.3623C13.8486 10.9225 13.4921 10.5637 13.0488 10.5647C12.5947 10.5747 12.2392 10.9445 12.2402 11.4043ZM13.055 15.892C12.6009 15.882 12.2346 15.5032 12.2336 15.0434C12.2237 14.5837 12.588 14.2029 13.0422 14.1919H13.0521C13.5161 14.1919 13.8923 14.5707 13.8923 15.0404C13.8933 15.5102 13.5181 15.891 13.055 15.892ZM8.17186 11.4204C8.1916 11.8801 8.56777 12.2389 9.02194 12.219C9.46624 12.198 9.82069 11.8182 9.80095 11.3584C9.79009 10.9086 9.42477 10.5588 8.98048 10.5598C8.52631 10.5798 8.17087 10.9606 8.17186 11.4204ZM9.02585 15.8471C8.57168 15.8671 8.19649 15.5083 8.17576 15.0485C8.17576 14.5888 8.53021 14.209 8.98438 14.188C9.42868 14.187 9.79498 14.5368 9.80485 14.9856C9.82558 15.4463 9.47015 15.8261 9.02585 15.8471ZM4.10433 11.4553C4.12408 11.915 4.50025 12.2749 4.95442 12.2539C5.39872 12.2339 5.75317 11.8531 5.73243 11.3933C5.72256 10.9435 5.35725 10.5937 4.91196 10.5947C4.45779 10.6147 4.10334 10.9955 4.10433 11.4553ZM4.95837 15.8521C4.5042 15.8731 4.12901 15.5132 4.10828 15.0535C4.10729 14.5937 4.46273 14.2129 4.9169 14.1929C5.3612 14.1919 5.7275 14.5417 5.73737 14.9915C5.7581 15.4513 5.40365 15.8321 4.95837 15.8521Z" fill="#88919F"/>
</svg>
