<svg width="16" height="18" viewBox="0 0 16 18" fill="none" xmlns="http://www.w3.org/2000/svg">
<path fill-rule="evenodd" clip-rule="evenodd" d="M11.6757 1.30751L11.6766 1.93219C13.9721 2.1121 15.4885 3.67632 15.4909 6.07512L15.5 13.0966C15.5033 15.712 13.8602 17.3212 11.2265 17.3253L4.79324 17.3336C2.17599 17.337 0.512347 15.6895 0.509056 13.0666L0.500006 6.12759C0.496714 3.71297 1.95961 2.15292 4.25514 1.94219L4.25432 1.3175C4.2535 0.951018 4.52501 0.675323 4.88703 0.675323C5.24905 0.67449 5.52057 0.949353 5.52139 1.31584L5.52221 1.89888L10.4095 1.89221L10.4087 1.30917C10.4078 0.942689 10.6794 0.667827 11.0414 0.666994C11.3952 0.666161 11.6749 0.941023 11.6757 1.30751ZM1.7679 6.38496L14.2247 6.36831V6.07678C14.1893 4.28601 13.2908 3.34649 11.6782 3.20656L11.679 3.8479C11.679 4.20605 11.4001 4.49008 11.0463 4.49008C10.6843 4.49091 10.412 4.20772 10.412 3.84957L10.4111 3.1749L5.52386 3.18157L5.52468 3.8554C5.52468 4.21438 5.25399 4.49758 4.89197 4.49758C4.52995 4.49841 4.25761 4.21605 4.25761 3.85706L4.25679 3.21572C2.65238 3.37647 1.76461 4.31933 1.76708 6.12593L1.7679 6.38496ZM10.7002 10.1705V10.1797C10.7084 10.5628 11.0211 10.8535 11.4004 10.8452C11.7706 10.836 12.066 10.5187 12.0578 10.1356C12.0405 9.76907 11.7435 9.47005 11.374 9.47089C10.9956 9.47922 10.6994 9.78739 10.7002 10.1705ZM11.3792 13.9103C11.0007 13.902 10.6955 13.5863 10.6946 13.2032C10.6864 12.8201 10.99 12.5027 11.3685 12.4935H11.3767C11.7634 12.4935 12.0769 12.8092 12.0769 13.2007C12.0777 13.5922 11.7651 13.9095 11.3792 13.9103ZM7.30988 10.184C7.32633 10.5671 7.63981 10.8661 8.01829 10.8495C8.38853 10.832 8.68391 10.5155 8.66745 10.1323C8.6584 9.75751 8.35398 9.46598 7.98373 9.46682C7.60525 9.48348 7.30906 9.80082 7.30988 10.184ZM8.02154 13.8729C7.64306 13.8896 7.33041 13.5906 7.31313 13.2074C7.31313 12.8243 7.60851 12.5078 7.98698 12.4903C8.35723 12.4895 8.66248 12.781 8.67071 13.155C8.68799 13.5389 8.39179 13.8554 8.02154 13.8729ZM3.92027 10.213C3.93673 10.5962 4.2502 10.896 4.62868 10.8785C4.99893 10.8619 5.2943 10.5445 5.27703 10.1614C5.2688 9.78659 4.96437 9.49507 4.5933 9.4959C4.21483 9.51256 3.91945 9.8299 3.92027 10.213ZM4.63197 13.877C4.2535 13.8945 3.94084 13.5947 3.92356 13.2115C3.92274 12.8284 4.21894 12.5111 4.59742 12.4944C4.96766 12.4936 5.27291 12.7851 5.28114 13.1599C5.29842 13.543 5.00304 13.8604 4.63197 13.877Z" fill="white"/>
</svg>
