<svg width="18" height="18" viewBox="0 0 18 18" fill="none" xmlns="http://www.w3.org/2000/svg">
<path fill-rule="evenodd" clip-rule="evenodd" d="M0.666748 9.01187C0.666748 4.62195 4.17508 0.666016 9.01675 0.666016C13.7501 0.666016 17.3334 4.54684 17.3334 8.98683C17.3334 14.1362 13.1334 17.3327 9.00008 17.3327C7.63342 17.3327 6.11675 16.9655 4.90008 16.2477C4.47508 15.989 4.11675 15.797 3.65841 15.9473L1.97508 16.448C1.55008 16.5816 1.16675 16.2477 1.29175 15.797L1.85008 13.9276C1.94175 13.6689 1.92508 13.3934 1.79175 13.1764C1.07508 11.8578 0.666748 10.414 0.666748 9.01187ZM7.91675 9.01187C7.91675 9.60442 8.39175 10.0801 8.98341 10.0885C9.57508 10.0885 10.0501 9.60442 10.0501 9.02021C10.0501 8.42766 9.57508 7.95194 8.98341 7.95194C8.40008 7.9436 7.91675 8.42766 7.91675 9.01187ZM11.7587 9.02031C11.7587 9.60452 12.2337 10.0886 12.8254 10.0886C13.417 10.0886 13.892 9.60452 13.892 9.02031C13.892 8.42775 13.417 7.95204 12.8254 7.95204C12.2337 7.95204 11.7587 8.42775 11.7587 9.02031ZM5.14175 10.0885C4.55842 10.0885 4.07508 9.60442 4.07508 9.02021C4.07508 8.42766 4.55008 7.95194 5.14175 7.95194C5.73342 7.95194 6.20842 8.42766 6.20842 9.02021C6.20842 9.60442 5.73342 10.0801 5.14175 10.0885Z" fill="white"/>
</svg>
