<svg width="9" height="8" viewBox="0 0 9 8" fill="none" xmlns="http://www.w3.org/2000/svg">
<path d="M5.27939 0.912974C5.31806 0.950642 5.48339 1.09287 5.61939 1.22536C6.47472 2.00211 7.87472 4.02841 8.30206 5.08898C8.37072 5.25004 8.51606 5.65725 8.52539 5.87482C8.52539 6.08329 8.47739 6.28203 8.38006 6.47167C8.24406 6.70807 8.03006 6.89771 7.77739 7.00162C7.60206 7.06852 7.07739 7.17243 7.06806 7.17243C6.49406 7.27634 5.56139 7.3335 4.53072 7.3335C3.54872 7.3335 2.65406 7.27634 2.07139 7.19126C2.06206 7.18152 1.41006 7.07761 1.18672 6.96395C0.778724 6.75548 0.52539 6.34827 0.525391 5.91249L0.525391 5.87482C0.535391 5.591 0.788724 4.99415 0.798058 4.99415C1.22606 3.99075 2.55739 2.0112 3.44206 1.21562C3.44206 1.21562 3.66939 0.991557 3.81139 0.894139C4.01539 0.742166 4.26806 0.666829 4.52072 0.666829C4.80272 0.666829 5.06539 0.751908 5.27939 0.912974" fill="#88919F"/>
</svg>
