<svg width="20" height="18" viewBox="0 0 20 18" fill="none" xmlns="http://www.w3.org/2000/svg">
<path fill-rule="evenodd" clip-rule="evenodd" d="M7.80358 12.2526C8.42805 12.6759 9.18913 12.9319 9.99899 12.9319C12.1456 12.9319 13.8922 11.1696 13.8922 9.00369C13.8922 8.18655 13.6385 7.41863 13.2189 6.78855L12.1554 7.86166C12.331 8.1964 12.4286 8.5902 12.4286 9.00369C12.4286 10.3525 11.3358 11.4551 9.99899 11.4551C9.58918 11.4551 9.19889 11.3567 8.86714 11.1795L7.80358 12.2526ZM16.4291 3.54952C17.8439 4.84907 19.0441 6.60149 19.9418 8.70834C20.0198 8.8954 20.0198 9.11199 19.9418 9.2892C17.8537 14.1921 14.1361 17.1259 9.99899 17.1259H9.98924C8.10606 17.1259 6.30095 16.5056 4.71049 15.3735L2.81756 17.2834C2.6712 17.4311 2.48581 17.5 2.30042 17.5C2.11503 17.5 1.91988 17.4311 1.78328 17.2834C1.53934 17.0373 1.50031 16.6435 1.69546 16.358L1.72473 16.3186L16.1559 1.75771C16.1754 1.73802 16.1949 1.71833 16.2047 1.69864L16.2047 1.69863C16.2242 1.67894 16.2437 1.65925 16.2535 1.63957L17.1707 0.714131C17.4634 0.428623 17.922 0.428623 18.205 0.714131C18.4977 0.999638 18.4977 1.4722 18.205 1.75771L16.4291 3.54952ZM6.09836 9.00753C6.09836 9.2635 6.12764 9.51948 6.16667 9.75576L2.55643 13.3984C1.5807 12.2564 0.731804 10.8781 0.0585443 9.29304C-0.0195148 9.11583 -0.0195148 8.89924 0.0585443 8.71218C2.14662 3.80933 5.86419 0.885337 9.99156 0.885337H10.0013C11.3966 0.885337 12.7529 1.22007 14.0018 1.85015L10.7429 5.13841C10.5087 5.09903 10.255 5.0695 10.0013 5.0695C7.84494 5.0695 6.09836 6.83177 6.09836 9.00753Z" fill="#6F7887"/>
</svg>
