<svg width="32" height="32" viewBox="0 0 32 32" fill="none" xmlns="http://www.w3.org/2000/svg">
<circle cx="16" cy="16" r="16" fill="#060A20"/>
<path fill-rule="evenodd" clip-rule="evenodd" d="M12.8549 13.2593H19.5258C21.4904 13.2593 23.0832 14.8173 23.0832 16.7389V20.8538C23.0832 22.7754 21.4904 24.3334 19.5258 24.3334H12.473C10.5093 24.3334 8.9165 22.7754 8.9165 20.8538V16.7389C8.9165 15.1585 10.0004 13.8391 11.4755 13.415L11.3832 13.4258V12.156C11.4001 9.6803 13.4586 7.66675 15.9821 7.66675C17.9551 7.66675 19.6986 8.88515 20.3421 10.69C20.4099 10.8722 20.3929 11.071 20.3083 11.2449C20.2236 11.4189 20.072 11.5514 19.8849 11.6102C19.5038 11.7419 19.0804 11.5439 18.9365 11.1629C18.5046 9.93624 17.32 9.11624 15.999 9.11624C14.2707 9.11624 12.8744 10.4754 12.865 12.1395V13.2576L12.8549 13.2593ZM15.996 20.4405C16.4109 20.4405 16.7411 20.1175 16.7411 19.7116V17.8728C16.7411 17.4753 16.4109 17.1522 15.996 17.1522C15.5895 17.1522 15.2593 17.4753 15.2593 17.8728V19.7116C15.2593 20.1175 15.5895 20.4405 15.996 20.4405Z" fill="white"/>
</svg>
