<svg width="33" height="32" viewBox="0 0 33 32" fill="none" xmlns="http://www.w3.org/2000/svg">
<circle cx="16.5" cy="16" r="16" fill="#060A20"/>
<path fill-rule="evenodd" clip-rule="evenodd" d="M14.7462 15.3582C14.3816 15.3582 14.0933 15.6415 14.0933 15.9998C14.0933 16.3498 14.3816 16.6415 14.7462 16.6415H19.8334V20.6248C19.8334 22.6665 18.1462 24.3332 16.0604 24.3332H11.9313C9.85401 24.3332 8.16675 22.6748 8.16675 20.6332V11.3748C8.16675 9.32484 9.86248 7.6665 11.9398 7.6665H16.0774C18.1462 7.6665 19.8334 9.32484 19.8334 11.3665V15.3582H14.7462ZM22.8586 13.1167L25.2919 15.5417C25.4169 15.6667 25.4836 15.825 25.4836 16C25.4836 16.1667 25.4169 16.3333 25.2919 16.45L22.8586 18.875C22.7336 19 22.5669 19.0667 22.4086 19.0667C22.2419 19.0667 22.0752 19 21.9502 18.875C21.7002 18.625 21.7002 18.2167 21.9502 17.9667L23.2836 16.6417H19.8336V15.3583H23.2836L21.9502 14.0333C21.7002 13.7833 21.7002 13.375 21.9502 13.125C22.2002 12.8667 22.6086 12.8667 22.8586 13.1167Z" fill="white"/>
</svg>
