<svg width="21" height="16" viewBox="0 0 21 16" fill="none" xmlns="http://www.w3.org/2000/svg">
<path fill-rule="evenodd" clip-rule="evenodd" d="M6.89053 8C6.89053 10.1333 8.63687 11.8691 10.793 11.8691C12.9393 11.8691 14.6857 10.1333 14.6857 8C14.6857 5.85697 12.9393 4.12121 10.793 4.12121C8.63687 4.12121 6.89053 5.85697 6.89053 8ZM16.5296 2.04606C18.2369 3.36485 19.6905 5.29455 20.7344 7.70909C20.8125 7.89333 20.8125 8.10667 20.7344 8.28121C18.6466 13.1103 14.9296 16 10.793 16H10.7832C6.65638 16 2.93931 13.1103 0.851505 8.28121C0.773457 8.10667 0.773457 7.89333 0.851505 7.70909C2.93931 2.88 6.65638 0 10.7832 0L10.793 0C12.8613 0 14.8222 0.717576 16.5296 2.04606ZM10.7945 10.4125C12.1311 10.4125 13.2238 9.32646 13.2238 7.99797C13.2238 6.65979 12.1311 5.57373 10.7945 5.57373C10.6774 5.57373 10.5603 5.58343 10.453 5.60282C10.414 6.66949 9.53596 7.52282 8.45303 7.52282H8.40425C8.37498 7.67797 8.35547 7.83312 8.35547 7.99797C8.35547 9.32646 9.44815 10.4125 10.7945 10.4125Z" fill="#060A20"/>
</svg>
