<svg width="8" height="8" viewBox="0 0 8 8" fill="none" xmlns="http://www.w3.org/2000/svg">
<path d="M7.08727 4.754C7.0496 4.79267 6.90737 4.958 6.77488 5.094C5.99813 5.94933 3.97183 7.34933 2.91127 7.77667C2.7502 7.84533 2.34299 7.99067 2.12543 8C1.91695 8 1.71822 7.952 1.52858 7.85467C1.29217 7.71867 1.10253 7.50467 0.99862 7.252C0.931726 7.07667 0.827813 6.552 0.827813 6.54267C0.7239 5.96867 0.666748 5.036 0.666748 4.00533C0.666748 3.02333 0.7239 2.12867 0.808979 1.546C0.81872 1.53667 0.922633 0.884666 1.03629 0.661333C1.24476 0.253333 1.65197 -2.81484e-07 2.08776 -3.00533e-07L2.12543 -3.02179e-07C2.40924 0.00999969 3.00609 0.263333 3.00609 0.272667C4.0095 0.700667 5.98904 2.032 6.78462 2.91667C6.78462 2.91667 7.00869 3.144 7.1061 3.286C7.25808 3.49 7.33341 3.74267 7.33341 3.99533C7.33341 4.27733 7.24834 4.54 7.08727 4.754" fill="#060A20"/>
</svg>
